<svg version="1.1" style="font-family:&quot;Lucida Grande&quot;, &quot;Lucida Sans Unicode&quot;, Arial, Helvetica, sans-serif;font-size:12px;" xmlns="http://www.w3.org/2000/svg" width="720" height="500"><desc>Created with Highcharts 4.2.5</desc><defs><clipPath id="highcharts-1"><rect x="0" y="0" width="700" height="437"/></clipPath></defs><rect x="0" y="0" width="720" height="500" fill="#FFFFFF" class=" highcharts-background"/><g class="highcharts-grid"><path fill="none" d="M 360 228.5 L 360 42.775000000000006" stroke="#D8D8D8" stroke-width="1" opacity="1"/><path fill="none" d="M 360 228.5 L 452.86249999999995 67.65743188213511" stroke="#D8D8D8" stroke-width="1" opacity="1"/><path fill="none" d="M 360 228.5 L 520.8425681178649 135.6375" stroke="#D8D8D8" stroke-width="1" opacity="1"/><path fill="none" d="M 360 228.5 L 545.725 228.5" stroke="#D8D8D8" stroke-width="1" opacity="1"/><path fill="none" d="M 360 228.5 L 520.8425681178649 321.36249999999995" stroke="#D8D8D8" stroke-width="1" opacity="1"/><path fill="none" d="M 360 228.5 L 452.86249999999995 389.34256811786486" stroke="#D8D8D8" stroke-width="1" opacity="1"/><path fill="none" d="M 360 228.5 L 360 414.225" stroke="#D8D8D8" stroke-width="1" opacity="1"/><path fill="none" d="M 360 228.5 L 267.1375 389.34256811786486" stroke="#D8D8D8" stroke-width="1" opacity="1"/><path fill="none" d="M 360 228.5 L 199.15743188213517 321.36250000000007" stroke="#D8D8D8" stroke-width="1" opacity="1"/><path fill="none" d="M 360 228.5 L 174.275 228.50000000000003" stroke="#D8D8D8" stroke-width="1" opacity="1"/><path fill="none" d="M 360 228.5 L 199.15743188213514 135.6375" stroke="#D8D8D8" stroke-width="1" opacity="1"/><path fill="none" d="M 360 228.5 L 267.13749999999993 67.6574318821352" stroke="#D8D8D8" stroke-width="1" opacity="1"/><path fill="none" d="M 360 228.5 L 359.99999999999994 42.775000000000006" stroke="#D8D8D8" stroke-width="1" opacity="1"/></g><g class="highcharts-grid"><path fill="none" stroke="#D8D8D8" stroke-width="1"/><path fill="none" d="M 360 166.59166666666667 A 61.90833333333333 61.90833333333333 0 1 1 359.9380916769847 166.59169762083076 M 360 228.5 A 0 0 0 1 0 360 228.5 " stroke="#D8D8D8" stroke-width="1" opacity="1"/><path fill="none" d="M 360 104.68333333333334 A 123.81666666666666 123.81666666666666 0 1 1 359.8761833539694 104.68339524166151 M 360 228.5 A 0 0 0 1 0 360 228.5 " stroke="#D8D8D8" stroke-width="1" opacity="1"/><path fill="none" d="M 360 42.775000000000006 A 185.725 185.725 0 1 1 359.8142750309541 42.77509286249227 M 360 228.5 A 0 0 0 1 0 360 228.5 " stroke="#D8D8D8" stroke-width="1" opacity="1"/></g><g class="highcharts-axis"><path fill="none" d="M 360 42.775000000000006 A 185.725 185.725 0 1 1 359.8142750309541 42.77509286249227 M 360 228.5 A 0 0 0 1 0 360 228.5 " stroke="#C0D0E0" stroke-width="1"/></g><g class="highcharts-axis"/><g class="highcharts-series-group"><g class="highcharts-series highcharts-series-0 highcharts-tracker" transform="translate(10,10) scale(1 1)" style="" clip-path="url(#highcharts-1)"><path fill="#7cb5ec" d="M 350 215.40458333333333 A 3.095416666666665 3.095416666666665 0 0 1 351.54502685045736 215.81774416364817 L 350 218.5 A 0 0 0 0 0 350 218.5 Z" r="0"/><path fill="#7cb5ec" d="M 0 0" r="0"/><path fill="#7cb5ec" d="M 371.44567574904806 206.11833333333232 A 24.76333333333332 24.76333333333332 0 0 1 374.7633209516677 218.47523667079273 L 350 218.5 A 0 0 0 0 0 350 218.5 Z" r="0"/><path fill="#7cb5ec" d="M 476.9120833333333 218.49999999999417 A 126.91208333333333 126.91208333333333 0 0 1 459.97248929042837 281.8461008687477 L 350 218.5 A 0 0 0 0 0 350 218.5 Z" r="0"/><path fill="#7cb5ec" d="M 422.37915565304104 260.28812499999674 A 83.57625 83.57625 0 0 1 391.86048324953236 290.8373313454272 L 350 218.5 A 0 0 0 0 0 350 218.5 Z" r="0"/><path fill="#7cb5ec" d="M 422.7422916666722 344.4933450256576 A 145.48458333333332 145.48458333333332 0 0 1 350.14548455909227 363.98451059104775 L 350 218.5 A 0 0 0 0 0 350 218.5 Z" r="0"/><path fill="#7cb5ec" d="M 350.000000000002 264.93125 A 46.431250000000006 46.431250000000006 0 0 1 326.82459724314094 258.7338375452786 L 350 218.5 A 0 0 0 0 0 350 218.5 Z" r="0"/><path fill="#7cb5ec" d="M 302.02104166667016 301.6019935275655 A 95.95791666666666 95.95791666666666 0 0 1 266.94602697376865 266.56203632353686 L 350 218.5 A 0 0 0 0 0 350 218.5 Z" r="0"/><path fill="#7cb5ec" d="M 323.1929053136898 233.97708333333443 A 30.95416666666668 30.95416666666668 0 0 1 319.04584881041535 218.5309541615089 L 350 218.5 A 0 0 0 0 0 350 218.5 Z" r="0"/><path fill="#7cb5ec" d="M 334.5229166666667 218.5000000000006 A 15.477083333333326 15.477083333333326 0 0 1 336.5887208182405 210.7748657477136 L 350 218.5 A 0 0 0 0 0 350 218.5 Z" r="0"/><path fill="#7cb5ec" d="M 325.87361478231975 204.57062500000092 A 27.858749999999986 27.858749999999986 0 0 1 336.0465055834894 194.38755621819087 L 350 218.5 A 0 0 0 0 0 350 218.5 Z" r="0"/><path fill="#7cb5ec" d="M 0 0" r="0"/></g><g class="highcharts-markers highcharts-series-0" transform="translate(10,10) scale(1 1)" clip-path="none"/></g><g class="highcharts-legend" transform="translate(317,459)"><g><g><g class="highcharts-legend-item" transform="translate(8,3)"><text x="21" style="color:#333333;font-size:12px;font-weight:bold;cursor:pointer;fill:#333333;" text-anchor="start" y="15">Column</text><rect x="0" y="4" width="16" height="12" fill="#7cb5ec"/></g></g></g></g><g class="highcharts-axis-labels highcharts-xaxis-labels"><text x="360" style="color:#606060;cursor:default;font-size:11px;fill:#606060;width:48px;text-overflow:clip;" transform="translate(0,0)" text-anchor="middle" y="31.775000000000006" opacity="1">0°</text><text x="460.36249999999995" style="color:#606060;cursor:default;font-size:11px;fill:#606060;width:48px;text-overflow:clip;" transform="translate(0,0)" text-anchor="start" y="58.667050825368534" opacity="1">30°</text><text x="533.8329491746315" style="color:#606060;cursor:default;font-size:11px;fill:#606060;width:48px;text-overflow:clip;" transform="translate(0,0)" text-anchor="start" y="132.1375" opacity="1">60°</text><text x="560.725" style="color:#606060;cursor:default;font-size:11px;fill:#606060;width:48px;text-overflow:clip;" transform="translate(0,0)" text-anchor="start" y="232.5" opacity="1">90°</text><text x="533.8329491746315" style="color:#606060;cursor:default;font-size:11px;fill:#606060;width:48px;text-overflow:clip;" transform="translate(0,0)" text-anchor="start" y="332.86249999999995" opacity="1">120°</text><text x="460.36249999999995" style="color:#606060;cursor:default;font-size:11px;fill:#606060;width:48px;text-overflow:clip;" transform="translate(0,0)" text-anchor="start" y="406.3329491746315" opacity="1">150°</text><text x="360" style="color:#606060;cursor:default;font-size:11px;fill:#606060;width:48px;text-overflow:clip;" transform="translate(0,0)" text-anchor="middle" y="433.225" opacity="1">180°</text><text x="259.6375" style="color:#606060;cursor:default;font-size:11px;fill:#606060;width:48px;text-overflow:clip;" transform="translate(0,0)" text-anchor="end" y="406.33294917463144" opacity="1">210°</text><text x="186.1670508253686" style="color:#606060;cursor:default;font-size:11px;fill:#606060;width:48px;text-overflow:clip;" transform="translate(0,0)" text-anchor="end" y="332.86250000000007" opacity="1">240°</text><text x="159.275" style="color:#606060;cursor:default;font-size:11px;fill:#606060;width:48px;text-overflow:clip;" transform="translate(0,0)" text-anchor="end" y="232.50000000000003" opacity="1">270°</text><text x="186.16705082536856" style="color:#606060;cursor:default;font-size:11px;fill:#606060;width:48px;text-overflow:clip;" transform="translate(0,0)" text-anchor="end" y="132.1375" opacity="1">300°</text><text x="259.63749999999993" style="color:#606060;cursor:default;font-size:11px;fill:#606060;width:48px;text-overflow:clip;" transform="translate(0,0)" text-anchor="end" y="58.66705082536862" opacity="1">330°</text><text x="0" style="color:#606060;cursor:default;font-size:11px;fill:#606060;width:48px;text-overflow:clip;" transform="translate(0,0)" text-anchor="middle" y="-9999">360°</text></g><g class="highcharts-axis-labels highcharts-yaxis-labels"><text x="357" style="color:#606060;cursor:default;font-size:11px;fill:#606060;width:228px;text-overflow:clip;" text-anchor="end" transform="translate(0,0)" y="226.5" opacity="1">0</text><text x="357" style="color:#606060;cursor:default;font-size:11px;fill:#606060;width:228px;text-overflow:clip;" text-anchor="end" transform="translate(0,0)" y="164.59166666666667" opacity="1">20</text><text x="357" style="color:#606060;cursor:default;font-size:11px;fill:#606060;width:228px;text-overflow:clip;" text-anchor="end" transform="translate(0,0)" y="102.68333333333334" opacity="1">40</text><text x="0" style="color:#606060;cursor:default;font-size:11px;fill:#606060;width:228px;text-overflow:clip;" text-anchor="end" transform="translate(0,0)" y="-9999">60</text></g><g class="highcharts-tooltip" style="cursor:default;padding:0;pointer-events:none;white-space:nowrap;" transform="translate(243,-9999)" opacity="0" visibility="visible"><path fill="none" d="M 3.5 0.5 L 42.5 0.5 48.5 -5.5 54.5 0.5 94 0.5 C 97.5 0.5 97.5 0.5 97.5 3.5 L 97.5 41.5 C 97.5 44.5 97.5 44.5 94.5 44.5 L 3.5 44.5 C 0.5 44.5 0.5 44.5 0.5 41.5 L 0.5 3.5 C 0.5 0.5 0.5 0.5 3.5 0.5" isShadow="true" stroke="black" stroke-opacity="0.049999999999999996" stroke-width="5" transform="translate(1, 1)"/><path fill="none" d="M 3.5 0.5 L 42.5 0.5 48.5 -5.5 54.5 0.5 94 0.5 C 97.5 0.5 97.5 0.5 97.5 3.5 L 97.5 41.5 C 97.5 44.5 97.5 44.5 94.5 44.5 L 3.5 44.5 C 0.5 44.5 0.5 44.5 0.5 41.5 L 0.5 3.5 C 0.5 0.5 0.5 0.5 3.5 0.5" isShadow="true" stroke="black" stroke-opacity="0.09999999999999999" stroke-width="3" transform="translate(1, 1)"/><path fill="none" d="M 3.5 0.5 L 42.5 0.5 48.5 -5.5 54.5 0.5 94 0.5 C 97.5 0.5 97.5 0.5 97.5 3.5 L 97.5 41.5 C 97.5 44.5 97.5 44.5 94.5 44.5 L 3.5 44.5 C 0.5 44.5 0.5 44.5 0.5 41.5 L 0.5 3.5 C 0.5 0.5 0.5 0.5 3.5 0.5" isShadow="true" stroke="black" stroke-opacity="0.15" stroke-width="1" transform="translate(1, 1)"/><path fill="rgba(249, 249, 249, .85)" d="M 3.5 0.5 L 42.5 0.5 48.5 -5.5 54.5 0.5 94 0.5 C 97.5 0.5 97.5 0.5 97.5 3.5 L 97.5 41.5 C 97.5 44.5 97.5 44.5 94.5 44.5 L 3.5 44.5 C 0.5 44.5 0.5 44.5 0.5 41.5 L 0.5 3.5 C 0.5 0.5 0.5 0.5 3.5 0.5" stroke="#7cb5ec" stroke-width="1"/><text x="8" style="font-size:12px;color:#333333;fill:#333333;" y="20"><tspan style="font-size: 10px">210</tspan><tspan style="fill:#7cb5ec" x="8" dy="15">●</tspan><tspan dx="0"> Column: </tspan><tspan style="font-weight:bold" dx="0">31</tspan></text></g><text x="710" text-anchor="end" style="cursor:pointer;color:#909090;font-size:9px;fill:#909090;" y="495">Highcharts.com</text></svg>